<svg width="37" height="36" viewBox="0 0 37 36" fill="none" xmlns="http://www.w3.org/2000/svg">
<path fill-rule="evenodd" clip-rule="evenodd" d="M17.5812 23.8747C13.5708 23.8747 10.3198 20.6236 10.3198 16.6133C10.3198 12.603 13.5708 9.35199 17.5812 9.35199C21.5915 9.35199 24.8425 12.603 24.8425 16.6133C24.8425 18.5092 24.1159 20.2353 22.9261 21.5286L26.6133 25.2158C27.0184 25.6209 27.0184 26.2777 26.6133 26.6828C26.2082 27.0879 25.5514 27.0879 25.1463 26.6828L21.3093 22.8458C20.2195 23.4991 18.9442 23.8747 17.5812 23.8747ZM17.5812 21.8C20.4457 21.8 22.7678 19.4778 22.7678 16.6133C22.7678 13.7488 20.4457 11.4267 17.5812 11.4267C14.7166 11.4267 12.3945 13.7488 12.3945 16.6133C12.3945 19.4778 14.7166 21.8 17.5812 21.8Z" fill="#010F07"/>
</svg>
