<svg width="37" height="36" viewBox="0 0 37 36" fill="none" xmlns="http://www.w3.org/2000/svg">
<path fill-rule="evenodd" clip-rule="evenodd" d="M9.9954 14.2976L17.8177 9.49225C18.1506 9.28774 18.5694 9.28774 18.9023 9.49225L26.7246 14.2976C27.3429 14.6775 27.72 15.3534 27.72 16.0818V25.3637C27.72 26.5185 26.7888 27.4546 25.64 27.4546L11.08 27.4546C9.93125 27.4546 9 26.5185 9 25.3637L9.00002 16.0818C9.00002 15.3534 9.37711 14.6775 9.9954 14.2976ZM16.28 19.0909C15.7056 19.0909 15.24 19.559 15.24 20.1364V23.2727C15.24 23.8501 15.7056 24.3182 16.28 24.3182H20.44C21.0144 24.3182 21.48 23.8501 21.48 23.2727V20.1364C21.48 19.559 21.0144 19.0909 20.44 19.0909H16.28Z" fill="#ED2024"/>
</svg>
