<svg width="30" height="30" viewBox="0 0 30 30" fill="none" xmlns="http://www.w3.org/2000/svg">
<rect x="0.706818" y="0.409637" width="29.2369" height="29.2369" rx="4" fill="white"/>
<path d="M15.3253 11.1428C16.5148 11.1428 17.3172 11.6567 17.7747 12.086L19.5625 10.3405C18.4645 9.31984 17.0356 8.69344 15.3253 8.69344C12.8478 8.69344 10.708 10.1152 9.66635 12.1845L11.7145 13.7752C12.2284 12.2479 13.6501 11.1428 15.3253 11.1428Z" fill="#EA4335"/>
<path d="M21.4066 15.1689C21.4066 14.648 21.3644 14.2679 21.2728 13.8738H15.3253V16.2246H18.8164C18.746 16.8088 18.3659 17.6887 17.5213 18.2799L19.5202 19.8284C20.7168 18.7233 21.4066 17.0974 21.4066 15.1689Z" fill="#4285F4"/>
<path d="M11.7216 16.281C11.5878 15.8868 11.5104 15.4645 11.5104 15.0281C11.5104 14.5917 11.5878 14.1694 11.7145 13.7752L9.66631 12.1845C9.23701 13.0432 8.99063 14.0075 8.99063 15.0281C8.99063 16.0487 9.23701 17.013 9.66631 17.8716L11.7216 16.281Z" fill="#FBBC05"/>
<path d="M15.3253 21.3628C17.0357 21.3628 18.4715 20.7997 19.5203 19.8284L17.5213 18.2799C16.9864 18.6529 16.2684 18.9134 15.3253 18.9134C13.6501 18.9134 12.2284 17.8083 11.7216 16.281L9.67337 17.8716C10.7151 19.941 12.8477 21.3628 15.3253 21.3628Z" fill="#34A853"/>
</svg>
