<svg width="11" height="20" viewBox="0 0 11 20" fill="none" xmlns="http://www.w3.org/2000/svg">
<rect opacity="0.3" x="0.910522" y="1.59839" width="8.95009" height="17.3494" rx="1.52308" fill="#ED2024"/>
<path fill-rule="evenodd" clip-rule="evenodd" d="M0.164673 4.19857C0.164673 3.03538 0.164673 2.45379 0.391044 2.00951C0.590166 1.61871 0.907894 1.30098 1.29869 1.10186C1.74297 0.875488 2.32456 0.875488 3.48775 0.875488H7.28337C8.44655 0.875488 9.02814 0.875488 9.47242 1.10186C9.86322 1.30098 10.1809 1.61871 10.3801 2.00951C10.6064 2.45379 10.6064 3.03538 10.6064 4.19857V16.3476C10.6064 17.5108 10.6064 18.0924 10.3801 18.5366C10.1809 18.9274 9.86322 19.2452 9.47242 19.4443C9.02814 19.6707 8.44655 19.6707 7.28336 19.6707H3.48775C2.32456 19.6707 1.74297 19.6707 1.29869 19.4443C0.907894 19.2452 0.590166 18.9274 0.391044 18.5366C0.164673 18.0924 0.164673 17.5108 0.164673 16.3476V4.19857ZM0.910513 4.0353C0.910513 3.1823 0.910513 2.7558 1.07652 2.42999C1.22254 2.14341 1.45554 1.91041 1.74213 1.76439C2.06793 1.59838 2.49443 1.59838 3.34744 1.59838H3.89388V1.76743C3.89388 2.07331 4.14184 2.32127 4.44772 2.32127H6.32339C6.62927 2.32127 6.87724 2.07331 6.87724 1.76743V1.59838H7.42367C8.27668 1.59838 8.70318 1.59838 9.02899 1.76439C9.31557 1.91041 9.54857 2.14341 9.69459 2.42999C9.8606 2.7558 9.8606 3.1823 9.8606 4.0353V16.5109C9.8606 17.3639 9.8606 17.7904 9.69459 18.1162C9.54857 18.4028 9.31557 18.6358 9.02899 18.7818C8.70318 18.9478 8.27668 18.9478 7.42368 18.9478H3.34744C2.49443 18.9478 2.06793 18.9478 1.74213 18.7818C1.45554 18.6358 1.22254 18.4028 1.07652 18.1162C0.910513 17.7904 0.910513 17.3639 0.910513 16.5109V4.0353Z" fill="#ED2024"/>
</svg>
