<svg width="37" height="25" viewBox="0 0 37 25" fill="none" xmlns="http://www.w3.org/2000/svg">
<path fill-rule="evenodd" clip-rule="evenodd" d="M33.3 0H3.7C1.60333 0 0 1.60333 0 3.7V20.9667C0 23.0633 1.60333 24.6667 3.7 24.6667H33.3C35.3967 24.6667 37 23.0633 37 20.9667V3.7C37 1.60333 35.3967 0 33.3 0Z" fill="#ED2024"/>
<path opacity="0.5" fill-rule="evenodd" clip-rule="evenodd" d="M29.1204 19.8704C30.8233 19.8704 32.2038 18.4899 32.2038 16.7871C32.2038 15.0842 30.8233 13.7037 29.1204 13.7037C27.4176 13.7037 26.0371 15.0842 26.0371 16.7871C26.0371 18.4899 27.4176 19.8704 29.1204 19.8704Z" fill="white"/>
<path fill-rule="evenodd" clip-rule="evenodd" d="M26.3797 19.8704C28.0826 19.8704 29.4631 18.4899 29.4631 16.7871C29.4631 15.0842 28.0826 13.7037 26.3797 13.7037C24.6768 13.7037 23.2964 15.0842 23.2964 16.7871C23.2964 18.4899 24.6768 19.8704 26.3797 19.8704Z" fill="white"/>
<path fill-rule="evenodd" clip-rule="evenodd" d="M11.7168 11.1H14.1834C14.5534 11.1 14.8001 11.3466 14.8001 11.7166C14.8001 12.0866 14.5534 12.3333 14.1834 12.3333H11.7168C11.3468 12.3333 11.1001 12.0866 11.1001 11.7166C11.1001 11.3466 11.3468 11.1 11.7168 11.1Z" fill="white"/>
<path fill-rule="evenodd" clip-rule="evenodd" d="M5.54977 11.1H8.01644C8.38644 11.1 8.63311 11.3466 8.63311 11.7166C8.63311 12.0866 8.38644 12.3333 8.01644 12.3333H5.54977C5.17977 12.3333 4.93311 12.0866 4.93311 11.7166C4.93311 11.3466 5.17977 11.1 5.54977 11.1Z" fill="white"/>
<path fill-rule="evenodd" clip-rule="evenodd" d="M5.54977 14.8H11.7164C12.0864 14.8 12.3331 15.0467 12.3331 15.4167C12.3331 15.7867 12.0864 16.0334 11.7164 16.0334H5.54977C5.17977 16.0334 4.93311 15.7867 4.93311 15.4167C4.93311 15.0467 5.17977 14.8 5.54977 14.8Z" fill="white"/>
<path fill-rule="evenodd" clip-rule="evenodd" d="M19.1164 19.7333H5.54977C5.17977 19.7333 4.93311 19.4867 4.93311 19.1167C4.93311 18.7467 5.17977 18.5 5.54977 18.5H19.1164C19.4864 18.5 19.7331 18.7467 19.7331 19.1167C19.7331 19.4867 19.4864 19.7333 19.1164 19.7333Z" fill="white"/>
<path fill-rule="evenodd" clip-rule="evenodd" d="M20.3499 12.3333H17.8833C17.5133 12.3333 17.2666 12.0866 17.2666 11.7166C17.2666 11.3466 17.5133 11.1 17.8833 11.1H20.3499C20.7199 11.1 20.9666 11.3466 20.9666 11.7166C20.9666 12.0866 20.7199 12.3333 20.3499 12.3333Z" fill="white"/>
</svg>
