<svg width="42" height="38" viewBox="0 0 42 38" fill="none" xmlns="http://www.w3.org/2000/svg">
<path d="M5.25 0.625C2.3543 0.625 0 2.9793 0 5.875V32.125C0 35.0207 2.3543 37.375 5.25 37.375H36.75C39.6457 37.375 42 35.0207 42 32.125V13.75C42 10.8543 39.6457 8.5 36.75 8.5H6.5625C5.84062 8.5 5.25 7.90938 5.25 7.1875C5.25 6.46562 5.84062 5.875 6.5625 5.875H36.75C38.202 5.875 39.375 4.70195 39.375 3.25C39.375 1.79805 38.202 0.625 36.75 0.625H5.25ZM34.125 20.3125C34.8212 20.3125 35.4889 20.5891 35.9812 21.0813C36.4734 21.5736 36.75 22.2413 36.75 22.9375C36.75 23.6337 36.4734 24.3014 35.9812 24.7937C35.4889 25.2859 34.8212 25.5625 34.125 25.5625C33.4288 25.5625 32.7611 25.2859 32.2688 24.7937C31.7766 24.3014 31.5 23.6337 31.5 22.9375C31.5 22.2413 31.7766 21.5736 32.2688 21.0813C32.7611 20.5891 33.4288 20.3125 34.125 20.3125Z" fill="#ED2024"/>
</svg>
