<svg width="30" height="10" viewBox="0 0 30 10" fill="none" xmlns="http://www.w3.org/2000/svg">
<path opacity="0.5" fill-rule="evenodd" clip-rule="evenodd" d="M26.4813 9.48136C28.3222 9.48136 29.8146 7.98898 29.8146 6.14803C29.8146 4.30708 28.3222 2.8147 26.4813 2.8147C24.6403 2.8147 23.1479 4.30708 23.1479 6.14803C23.1479 7.98898 24.6403 9.48136 26.4813 9.48136Z" fill="white"/>
<path fill-rule="evenodd" clip-rule="evenodd" d="M23.5179 9.48136C25.3589 9.48136 26.8512 7.98898 26.8512 6.14803C26.8512 4.30708 25.3589 2.8147 23.5179 2.8147C21.677 2.8147 20.1846 4.30708 20.1846 6.14803C20.1846 7.98898 21.677 9.48136 23.5179 9.48136Z" fill="white"/>
<path fill-rule="evenodd" clip-rule="evenodd" d="M7.66618 0H10.3328C10.7328 0 10.9995 0.266667 10.9995 0.666667C10.9995 1.06667 10.7328 1.33333 10.3328 1.33333H7.66618C7.26618 1.33333 6.99951 1.06667 6.99951 0.666667C6.99951 0.266667 7.26618 0 7.66618 0Z" fill="white"/>
<path fill-rule="evenodd" clip-rule="evenodd" d="M0.999675 0H3.66634C4.06634 0 4.33301 0.266667 4.33301 0.666667C4.33301 1.06667 4.06634 1.33333 3.66634 1.33333H0.999675C0.599674 1.33333 0.333008 1.06667 0.333008 0.666667C0.333008 0.266667 0.599674 0 0.999675 0Z" fill="white"/>
<path fill-rule="evenodd" clip-rule="evenodd" d="M0.999675 4H7.66634C8.06634 4 8.33301 4.26667 8.33301 4.66667C8.33301 5.06667 8.06634 5.33333 7.66634 5.33333H0.999675C0.599674 5.33333 0.333008 5.06667 0.333008 4.66667C0.333008 4.26667 0.599674 4 0.999675 4Z" fill="white"/>
<path fill-rule="evenodd" clip-rule="evenodd" d="M15.6663 9.33333H0.999675C0.599674 9.33333 0.333008 9.06667 0.333008 8.66667C0.333008 8.26667 0.599674 8 0.999675 8H15.6663C16.0663 8 16.333 8.26667 16.333 8.66667C16.333 9.06667 16.0663 9.33333 15.6663 9.33333Z" fill="white"/>
<path fill-rule="evenodd" clip-rule="evenodd" d="M16.9998 1.33333H14.3332C13.9332 1.33333 13.6665 1.06667 13.6665 0.666667C13.6665 0.266667 13.9332 0 14.3332 0H16.9998C17.3998 0 17.6665 0.266667 17.6665 0.666667C17.6665 1.06667 17.3998 1.33333 16.9998 1.33333Z" fill="white"/>
</svg>
