<svg width="15" height="15" viewBox="0 0 15 15" fill="none" xmlns="http://www.w3.org/2000/svg">
<path fill-rule="evenodd" clip-rule="evenodd" d="M8.99857 3.75C8.99857 4.16421 9.33433 4.5 9.7485 4.5C10.1627 4.5 10.4984 4.16421 10.4984 3.75V3C10.4984 1.34315 9.15541 0 7.4987 0H2.99974C1.34303 0 0 1.34315 0 3V12C0 13.6569 1.34303 15 2.99974 15H7.50391C9.16062 15 10.5036 13.6569 10.5036 12V11.25C10.5036 10.8358 10.1679 10.5 9.75371 10.5C9.33953 10.5 9.00378 10.8358 9.00378 11.25V12C9.00378 12.8284 8.33226 13.5 7.50391 13.5H2.99974C2.17138 13.5 1.49987 12.8284 1.49987 12V3C1.49987 2.17157 2.17138 1.5 2.99974 1.5H7.4987C8.32705 1.5 8.99857 2.17157 8.99857 3V3.75ZM12.4384 8.25L11.4684 9.21967C11.1754 9.51256 11.1754 9.98744 11.4684 10.2803C11.7614 10.5732 12.2365 10.5732 12.5295 10.2803L14.7803 8.03033C15.0732 7.73744 15.0732 7.26256 14.7803 6.96967L12.5295 4.71967C12.2365 4.42678 11.7614 4.42678 11.4684 4.71967C11.1754 5.01256 11.1754 5.48744 11.4684 5.78033L12.4384 6.75H5.24635C4.83214 6.75 4.49635 7.08579 4.49635 7.5C4.49635 7.91421 4.83214 8.25 5.24636 8.25H12.4384Z" fill="#010F07"/>
</svg>
