<svg width="70" height="70" viewBox="0 0 70 70" fill="none" xmlns="http://www.w3.org/2000/svg">
<g clip-path="url(#clip0_1336_4054)">
<path d="M26.25 0H0V26.25H26.25V0ZM21.875 21.875H4.375V4.375H21.875V21.875Z" fill="#444444"/>
<path d="M8.75 8.75H17.5V17.5H8.75V8.75ZM0 70H26.25V43.75H0V70ZM4.375 48.125H21.875V65.625H4.375V48.125Z" fill="#444444"/>
<path d="M8.75 52.5H17.5V61.25H8.75V52.5ZM43.75 0V26.25H70V0H43.75ZM65.625 21.875H48.125V4.375H65.625V21.875Z" fill="#444444"/>
<path d="M52.5 8.75H61.25V17.5H52.5V8.75ZM8.75 30.625H0V39.375H13.125V35H8.75V30.625ZM30.625 39.375H39.375V48.125H30.625V39.375ZM13.125 30.625H21.875V35H13.125V30.625ZM39.375 52.5H30.625V56.875H35V61.25H39.375V56.875V52.5ZM26.25 30.625V35H21.875V39.375H30.625V30.625H26.25ZM35 17.5H39.375V26.25H35V17.5ZM39.375 35V39.375H48.125V30.625H35V35H39.375ZM30.625 26.25H35V30.625H30.625V26.25ZM39.375 61.25H48.125V70H39.375V61.25ZM30.625 61.25H35V70H30.625V61.25ZM39.375 48.125H43.75V52.5H39.375V48.125ZM39.375 13.125V4.375H35V0H30.625V17.5H35V13.125H39.375ZM52.5 61.25H56.875V70H52.5V61.25ZM52.5 52.5H61.25V56.875H52.5V52.5ZM48.125 56.875H52.5V61.25H48.125V56.875ZM43.75 52.5H48.125V56.875H43.75V52.5ZM61.25 43.75V48.125H65.625V52.5H70V43.75H65.625H61.25ZM65.625 56.875H61.25V70H70V61.25H65.625V56.875ZM43.75 43.75V48.125H56.875V39.375H48.125V43.75H43.75ZM52.5 30.625V35H61.25V39.375H70V30.625H61.25H52.5Z" fill="#444444"/>
</g>
<defs>
<clipPath id="clip0_1336_4054">
<rect width="70" height="70" fill="white"/>
</clipPath>
</defs>
</svg>
