<svg width="13" height="16" viewBox="0 0 13 16" fill="none" xmlns="http://www.w3.org/2000/svg">
<path fill-rule="evenodd" clip-rule="evenodd" d="M0.166626 6.75C0.166626 3 2.66663 0.5 6.41663 0.5C10.1666 0.5 12.6666 3.625 12.6666 6.75C12.6666 8.6938 10.853 11.3631 7.22578 14.7577C6.76279 15.191 6.04871 15.209 5.56451 14.7996C1.96592 11.7565 0.166626 9.07333 0.166626 6.75ZM6.41663 8C7.56722 8 8.49996 7.06726 8.49996 5.91667C8.49996 4.76607 7.56722 3.83333 6.41663 3.83333C5.26603 3.83333 4.33329 4.76607 4.33329 5.91667C4.33329 7.06726 5.26603 8 6.41663 8Z" fill="#868686"/>
</svg>
