<svg width="24" height="24" viewBox="0 0 24 24" fill="none" xmlns="http://www.w3.org/2000/svg">
<path fill-rule="evenodd" clip-rule="evenodd" d="M3.6665 7.83336C3.6665 6.91288 4.4127 6.16669 5.33317 6.16669H18.6665C19.587 6.16669 20.3332 6.91288 20.3332 7.83335V8.66669H3.6665V7.83336ZM3.6665 11.1667H20.3332V16.1667C20.3332 17.0872 19.587 17.8334 18.6665 17.8334H5.33317C4.4127 17.8334 3.6665 17.0872 3.6665 16.1667V11.1667ZM16.1665 13.6667C15.7063 13.6667 15.3332 14.0398 15.3332 14.5C15.3332 14.9603 15.7063 15.3334 16.1665 15.3334H17.8332C18.2934 15.3334 18.6665 14.9603 18.6665 14.5C18.6665 14.0398 18.2934 13.6667 17.8332 13.6667H16.1665Z" fill="#010F07"/>
</svg>
