<svg width="125" height="123" viewBox="0 0 125 123" fill="none" xmlns="http://www.w3.org/2000/svg">
<path opacity="0.1" fill-rule="evenodd" clip-rule="evenodd" d="M60 120C99 107.5 71 93.1371 71 60C71 26.8629 93.1371 0 60 0C26.8629 0 0 26.8629 0 60C0 93.1371 21 132.5 60 120Z" fill="#ED2024"/>
<path fill-rule="evenodd" clip-rule="evenodd" d="M114.2 36H27.8C21.68 36 17 40.68 17 46.8V97.2C17 103.32 21.68 108 27.8 108H114.2C120.32 108 125 103.32 125 97.2V46.8C125 40.68 120.32 36 114.2 36Z" fill="#ED2024"/>
<path opacity="0.5" fill-rule="evenodd" clip-rule="evenodd" d="M102 94C106.971 94 111 89.9706 111 85C111 80.0294 106.971 76 102 76C97.0294 76 93 80.0294 93 85C93 89.9706 97.0294 94 102 94Z" fill="white"/>
<path fill-rule="evenodd" clip-rule="evenodd" d="M94 94C98.9706 94 103 89.9706 103 85C103 80.0294 98.9706 76 94 76C89.0294 76 85 80.0294 85 85C85 89.9706 89.0294 94 94 94Z" fill="white"/>
<path fill-rule="evenodd" clip-rule="evenodd" d="M51.1999 68.4H58.3999C59.4799 68.4 60.1999 69.12 60.1999 70.2C60.1999 71.28 59.4799 72 58.3999 72H51.1999C50.1199 72 49.3999 71.28 49.3999 70.2C49.3999 69.12 50.1199 68.4 51.1999 68.4Z" fill="white"/>
<path fill-rule="evenodd" clip-rule="evenodd" d="M33.1999 68.4H40.3999C41.4799 68.4 42.1999 69.12 42.1999 70.2C42.1999 71.28 41.4799 72 40.3999 72H33.1999C32.1199 72 31.3999 71.28 31.3999 70.2C31.3999 69.12 32.1199 68.4 33.1999 68.4Z" fill="white"/>
<path fill-rule="evenodd" clip-rule="evenodd" d="M33.1999 79.2H51.1999C52.2799 79.2 52.9999 79.92 52.9999 81C52.9999 82.08 52.2799 82.8 51.1999 82.8H33.1999C32.1199 82.8 31.3999 82.08 31.3999 81C31.3999 79.92 32.1199 79.2 33.1999 79.2Z" fill="white"/>
<path fill-rule="evenodd" clip-rule="evenodd" d="M72.7999 93.6H33.1999C32.1199 93.6 31.3999 92.88 31.3999 91.8C31.3999 90.72 32.1199 90 33.1999 90H72.7999C73.8799 90 74.5999 90.72 74.5999 91.8C74.5999 92.88 73.8799 93.6 72.7999 93.6Z" fill="white"/>
<path fill-rule="evenodd" clip-rule="evenodd" d="M76.3999 72H69.1999C68.1199 72 67.3999 71.28 67.3999 70.2C67.3999 69.12 68.1199 68.4 69.1999 68.4H76.3999C77.4799 68.4 78.1999 69.12 78.1999 70.2C78.1999 71.28 77.4799 72 76.3999 72Z" fill="white"/>
</svg>
