<svg width="37" height="36" viewBox="0 0 37 36" fill="none" xmlns="http://www.w3.org/2000/svg">
<path opacity="0.5" fill-rule="evenodd" clip-rule="evenodd" d="M18.4798 35.52C28.2442 35.52 36.1598 27.6044 36.1598 17.84C36.1598 8.07558 28.2442 0.159973 18.4798 0.159973C8.71541 0.159973 0.799805 8.07558 0.799805 17.84C0.799805 27.6044 8.71541 35.52 18.4798 35.52Z" fill="black"/>
<path fill-rule="evenodd" clip-rule="evenodd" d="M12.5683 22.2806C12.1778 22.6711 12.1778 23.3043 12.5683 23.6948L12.6249 23.7514C13.0154 24.1419 13.6485 24.1419 14.0391 23.7514L18.4797 19.3108L22.9203 23.7514C23.3109 24.1419 23.944 24.1419 24.3345 23.7514L24.3911 23.6948C24.7816 23.3043 24.7816 22.6711 24.3911 22.2806L19.9505 17.84L24.3911 13.3994C24.7816 13.0088 24.7816 12.3757 24.3911 11.9851L24.3345 11.9286C23.944 11.5381 23.3109 11.538 22.9203 11.9286L18.4797 16.3692L14.0391 11.9286C13.6485 11.5381 13.0154 11.5381 12.6249 11.9286L12.5683 11.9851C12.1778 12.3757 12.1778 13.0088 12.5683 13.3994L17.0089 17.84L12.5683 22.2806Z" fill="white"/>
</svg>
