<svg width="15" height="13" viewBox="0 0 15 13" fill="none" xmlns="http://www.w3.org/2000/svg">
<path fill-rule="evenodd" clip-rule="evenodd" d="M12.5033 0.795197L1.98192 11.3166L3.08944 12.4241L13.6108 1.90271L12.5033 0.795197ZM9.3474 1.96586L7.38553 3.92773C6.088 3.92773 5.03614 4.97959 5.03614 6.27712L2.31602 8.99725C0.924741 7.71299 0.337341 6.27712 0.337341 6.27712C0.337341 6.27712 2.25958 1.57833 7.38553 1.57833C8.06415 1.57833 8.72281 1.72474 9.3474 1.96586ZM13.0303 4.59211C13.9093 5.50801 14.4337 6.27712 14.4337 6.27712C14.4337 6.27712 11.23 10.9759 7.38553 10.9759C7.14225 10.9759 6.90618 10.9653 6.67719 10.9452L13.0303 4.59211Z" fill="#868686"/>
</svg>
