<svg width="36" height="36" viewBox="0 0 36 36" fill="none" xmlns="http://www.w3.org/2000/svg">
<path fill-rule="evenodd" clip-rule="evenodd" d="M9.92017 10.2364C9.92017 9.6763 9.92017 9.39627 10.0292 9.18236C10.125 8.9942 10.278 8.84122 10.4662 8.74535C10.6801 8.63635 10.9601 8.63635 11.5202 8.63635H24.9602C25.5202 8.63635 25.8003 8.63635 26.0142 8.74535C26.2023 8.84122 26.3553 8.9942 26.4512 9.18236C26.5602 9.39627 26.5602 9.6763 26.5602 10.2364V25.8545C26.5602 26.4146 26.5602 26.6946 26.4512 26.9085C26.4034 27.0023 26.3415 27.0873 26.268 27.1609L24.4802 25.3636L22.9202 26.9318L21.3602 25.3636L19.8002 26.9318L18.2402 25.3636L16.6802 26.9318L15.1202 25.3636L13.5602 26.9318L12.0002 25.3636L10.2123 27.1609C10.1389 27.0873 10.0769 27.0023 10.0292 26.9085C9.92017 26.6946 9.92017 26.4146 9.92017 25.8545V10.2364ZM12.0547 11.0003C12.0002 11.1072 12.0002 11.2472 12.0002 11.5273V12.0182C12.0002 12.2982 12.0002 12.4382 12.0547 12.5452C12.1026 12.6392 12.1791 12.7157 12.2732 12.7637C12.3801 12.8182 12.5201 12.8182 12.8002 12.8182H23.6802C23.9602 12.8182 24.1002 12.8182 24.2072 12.7637C24.3012 12.7157 24.3777 12.6392 24.4257 12.5452C24.4802 12.4382 24.4802 12.2982 24.4802 12.0182V11.5273C24.4802 11.2472 24.4802 11.1072 24.4257 11.0003C24.3777 10.9062 24.3012 10.8297 24.2072 10.7818C24.1002 10.7273 23.9602 10.7273 23.6802 10.7273H12.8002C12.5201 10.7273 12.3801 10.7273 12.2732 10.7818C12.1791 10.8297 12.1026 10.9062 12.0547 11.0003Z" fill="#868686"/>
</svg>
