<svg width="26" height="25" viewBox="0 0 26 25" fill="none" xmlns="http://www.w3.org/2000/svg">
<path fill-rule="evenodd" clip-rule="evenodd" d="M13.8805 5.19995C13.8805 4.64767 13.4328 4.19995 12.8805 4.19995H12.8005C12.2482 4.19995 11.8005 4.64767 11.8005 5.19995V11.48H5.52051C4.96822 11.48 4.52051 11.9277 4.52051 12.4799V12.56C4.52051 13.1122 4.96822 13.56 5.52051 13.56H11.8005V19.84C11.8005 20.3922 12.2482 20.84 12.8005 20.84H12.8805C13.4328 20.84 13.8805 20.3922 13.8805 19.84V13.56H20.1605C20.7128 13.56 21.1605 13.1122 21.1605 12.56V12.48C21.1605 11.9277 20.7128 11.48 20.1605 11.48H13.8805V5.19995Z" fill="#010F07"/>
</svg>
