<svg width="36" height="36" viewBox="0 0 36 36" fill="none" xmlns="http://www.w3.org/2000/svg">
<path fill-rule="evenodd" clip-rule="evenodd" d="M16.7602 24.3181C12.7396 24.3181 9.48022 21.0417 9.48022 16.9999C9.48022 12.9582 12.7396 9.68176 16.7602 9.68176C20.7809 9.68176 24.0402 12.9582 24.0402 16.9999C24.0402 18.9106 23.3118 20.6503 22.1189 21.9537L25.8156 25.6698C26.2218 26.0781 26.2218 26.74 25.8156 27.1483C25.4095 27.5566 24.751 27.5566 24.3448 27.1483L20.498 23.2812C19.4054 23.9396 18.1268 24.3181 16.7602 24.3181ZM16.7602 22.2272C19.6321 22.2272 21.9602 19.8869 21.9602 16.9999C21.9602 14.113 19.6321 11.7727 16.7602 11.7727C13.8883 11.7727 11.5602 14.113 11.5602 16.9999C11.5602 19.8869 13.8883 22.2272 16.7602 22.2272Z" fill="#868686"/>
</svg>
